<svg aria-hidden="true" style="width:0;height:0;position:absolute;overflow:hidden" xmlns="http://www.w3.org/2000/svg"><defs><symbol id="icon-arrow-left" viewBox="0 0 32 32"><path stroke-linejoin="round" stroke-linecap="round" stroke-width="2.667" d="M25.333 16H6.666M16 25.334l-9.333-9.333L16 6.668"/></symbol><symbol id="icon-arrow-right" viewBox="0 0 32 32"><path stroke-linejoin="round" stroke-linecap="round" stroke-width="2.667" d="M6.667 16h18.667M16 25.334l9.333-9.333L16 6.668"/></symbol><symbol id="icon-heart" viewBox="0 0 32 32"><path fill="#ff6b08" style="fill:var(--color1,#ff6b08)" d="m16 30.583-2.24-2.24C5.44 20.983 0 16.023 0 9.943c0-4.96 3.84-8.8 8.8-8.8 2.72 0 5.44 1.28 7.2 3.36 1.76-2.08 4.48-3.36 7.2-3.36 4.96 0 8.8 3.84 8.8 8.8 0 6.08-5.44 11.04-13.76 18.4L16 30.583z"/></symbol><symbol id="icon-logo" viewBox="0 0 32 32"><path fill="none" stroke="#fff" style="stroke:var(--color2,#fff)" stroke-linejoin="round" stroke-linecap="round" stroke-width="2.667" d="M26.427 2.667H5.574a2.907 2.907 0 0 0-2.907 2.907v20.853a2.907 2.907 0 0 0 2.907 2.907h20.853a2.907 2.907 0 0 0 2.907-2.907V5.574a2.907 2.907 0 0 0-2.907-2.907zM9.333 2.667v26.667M22.667 2.667v26.667M2.667 16h26.667M2.667 9.333h6.667M2.667 22.667h6.667M22.667 22.667h6.667M22.667 9.333h6.667"/></symbol><symbol id="icon-search" viewBox="0 0 32 32"><path fill="none" stroke="#fff" style="stroke:var(--color2,#fff)" stroke-linejoin="round" stroke-linecap="round" stroke-width="2.667" d="M14.667 25.333c5.891 0 10.667-4.776 10.667-10.667S20.558 3.999 14.667 3.999 4 8.775 4 14.666s4.776 10.667 10.667 10.667zM28 28.001l-5.8-5.8"/></symbol><symbol id="icon-three-points" viewBox="0 0 32 32"><path d="M5.175 12.8c.85 0 1.506.244 1.969.731.463.475.694 1.075.694 1.8 0 .712-.231 1.306-.694 1.781-.463.462-1.119.694-1.969.694-.813 0-1.456-.231-1.931-.694s-.712-1.056-.712-1.781c0-.725.231-1.325.694-1.8.462-.488 1.113-.731 1.95-.731zm10.725 0c.85 0 1.506.244 1.969.731.463.475.694 1.075.694 1.8 0 .712-.231 1.306-.694 1.781-.462.462-1.119.694-1.969.694-.813 0-1.456-.231-1.931-.694s-.712-1.056-.712-1.781c0-.725.231-1.325.694-1.8.463-.488 1.112-.731 1.95-.731zm10.725 0c.85 0 1.506.244 1.969.731.462.475.694 1.075.694 1.8 0 .712-.231 1.306-.694 1.781-.462.462-1.119.694-1.969.694-.812 0-1.456-.231-1.931-.694s-.712-1.056-.712-1.781c0-.725.231-1.325.694-1.8.462-.488 1.112-.731 1.95-.731z"/></symbol><symbol id="icon-sun" viewBox="0 0 32 32"><path d="M16 26a2 2 0 0 1 2 2v2a2 2 0 1 1-4 0v-2a2 2 0 0 1 2-2zm0-20a2 2 0 0 1-2-2V2a2 2 0 1 1 4 0v2a2 2 0 0 1-2 2zm14 8a2 2 0 1 1 0 4h-2a2 2 0 1 1 0-4h2zM6 16a2 2 0 0 1-2 2H2a2 2 0 1 1 0-4h2a2 2 0 0 1 2 2zm19.899 7.071 1.414 1.414a2 2 0 1 1-2.828 2.828l-1.414-1.414a2 2 0 1 1 2.828-2.828zM6.101 8.929 4.687 7.515a2 2 0 1 1 2.828-2.828l1.414 1.414a2 2 0 1 1-2.828 2.828zm19.798 0a2 2 0 1 1-2.828-2.828l1.414-1.414a2 2 0 1 1 2.828 2.828l-1.414 1.414zM6.101 23.071a2 2 0 1 1 2.828 2.828l-1.414 1.414a2 2 0 1 1-2.828-2.828l1.414-1.414zM16 8a8 8 0 1 0 0 16 8 8 0 0 0 0-16zm0 13a5 5 0 1 1 .001-10.001A5 5 0 0 1 16 21z"/></symbol><symbol id="icon-moon" viewBox="0 0 32 32"><path d="M5.895 9.148c.848 8.959 8 16.109 16.957 16.953a12.132 12.132 0 0 1-6.5 1.898C9.539 28 4 22.461 4 15.646c0-2.347.688-4.587 1.895-6.498M11.844 0C5.02 1.969 0 8.189 0 15.646 0 24.68 7.32 32 16.352 32c7.457 0 13.68-5.023 15.648-11.844-2.18 1.258-4.672 2.031-7.367 2.031-8.188 0-14.82-6.639-14.82-14.822-.001-2.695.773-5.187 2.031-7.365z"/></symbol><symbol id="preload-icon" viewBox="0 0 32 32"><path fill="none" stroke="#545454" style="stroke:var(--color2,#545454)" stroke-linejoin="round" stroke-linecap="round" stroke-width="2.667" d="M26.427 2.667H5.574a2.907 2.907 0 0 0-2.907 2.907v20.853a2.907 2.907 0 0 0 2.907 2.907h20.853a2.907 2.907 0 0 0 2.907-2.907V5.574a2.907 2.907 0 0 0-2.907-2.907zM9.333 2.667v26.667M22.667 2.667v26.667M2.667 16h26.667M2.667 9.333h6.667M2.667 22.667h6.667M22.667 22.667h6.667M22.667 9.333h6.667"/></symbol><symbol id="icon_to_up" viewBox="0 0 48 32"><path d="M5.6 29.6 0 24 24 0l24 24-5.6 5.6L24 11.2 5.6 29.6z"/></symbol></defs></svg>