<svg xmlns="http://www.w3.org/2000/svg" aria-hidden="true" style="width:0;height:0;position:absolute;overflow:hidden"><defs><symbol id="icon-film" viewBox="0 0 32 32"><path stroke-linecap="round" stroke-linejoin="round" stroke-width="2.667" d="M26.427 2.667H5.574a2.907 2.907 0 0 0-2.907 2.907v20.853a2.907 2.907 0 0 0 2.907 2.907h20.853a2.907 2.907 0 0 0 2.907-2.907V5.574a2.907 2.907 0 0 0-2.907-2.907zm-17.094 0v26.667M22.667 2.667v26.667M2.667 16h26.667M2.667 9.333h6.667M2.667 22.667h6.667m13.333 0h6.667M22.667 9.333h6.667"/></symbol><symbol id="icon-search" viewBox="0 0 32 32"><path stroke-linecap="round" stroke-linejoin="round" stroke-width="2.667" d="M14.667 25.333c5.891 0 10.667-4.776 10.667-10.667S20.558 3.999 14.667 3.999 4 8.775 4 14.666s4.776 10.667 10.667 10.667zM28 28.001l-5.8-5.8"/></symbol><symbol id="icon-exit" viewBox="0 0 32 32"><path d="M18.4 12.8a.8.8 0 0 0 .8-.8V5.6c0-1.323-1.077-2.4-2.4-2.4H2.4A2.403 2.403 0 0 0 0 5.6v19.2c0 1.194.859 2.496 1.955 2.965l8.259 3.539c.285.122.574.182.851.182a1.7 1.7 0 0 0 .942-.275c.502-.331.792-.92.792-1.613v-2.4h4c1.323 0 2.4-1.077 2.4-2.4v-6.4a.8.8 0 1 0-1.6 0v6.4a.8.8 0 0 1-.8.8h-4v-15.2c0-1.194-.859-2.496-1.955-2.965L4.697 4.798h12.102a.8.8 0 0 1 .8.8v6.4a.8.8 0 0 0 .8.8zm-8.186-3.894c.515.221.986.934.986 1.494v19.2c0 .166-.045.259-.072.277s-.13.022-.283-.043l-8.259-3.539c-.515-.221-.986-.933-.986-1.494V5.599a.78.78 0 0 1 .084-.354l-.002.005 8.533 3.658z"/><path d="m29.366 14.634-4.8-4.8a.798.798 0 0 0-1.356.575.8.8 0 0 0 .225.557l3.433 3.433H16.799a.8.8 0 1 0 0 1.6h10.069l-3.434 3.434a.8.8 0 1 0 1.132 1.131l4.8-4.8a.797.797 0 0 0 0-1.132z"/></symbol></defs></svg>