<svg xmlns="http://www.w3.org/2000/svg" aria-hidden="true" style="position:absolute;width:0;height:0;overflow:hidden">
  <defs>
    <symbol id="icon-film" viewBox="0 0 32 32">
      <path stroke-linecap="round" stroke-linejoin="round" stroke-width="2.667" d="M26.427 2.667H5.574a2.907 2.907 0 0 0-2.907 2.907v20.853a2.907 2.907 0 0 0 2.907 2.907h20.853a2.907 2.907 0 0 0 2.907-2.907V5.574a2.907 2.907 0 0 0-2.907-2.907zM9.333 2.667v26.667M22.667 2.667v26.667M2.667 16h26.667M2.667 9.333h6.667M2.667 22.667h6.667M22.667 22.667h6.667M22.667 9.333h6.667"/>
    </symbol>
    <symbol id="icon-search" viewBox="0 0 32 32">
      <path stroke-linecap="round" stroke-linejoin="round" stroke-width="2.667" d="M14.667 25.333c5.891 0 10.667-4.776 10.667-10.667S20.558 3.999 14.667 3.999 4 8.775 4 14.666s4.776 10.667 10.667 10.667zM28 28.001l-5.8-5.8"/>
    </symbol>
    <symbol id="icon-exit" viewBox="0 0 32 32">
      <path d="M18.4 12.8c0.442 0 0.8-0.358 0.8-0.8v0-6.4c0-1.323-1.077-2.4-2.4-2.4h-14.4c-1.323 0-2.4 1.077-2.4 2.4v19.2c0 1.194 0.859 2.496 1.955 2.965l8.259 3.539c0.285 0.122 0.574 0.182 0.851 0.182 0.341 0 0.666-0.093 0.942-0.275 0.502-0.331 0.792-0.92 0.792-1.613v-2.4h4c1.323 0 2.4-1.077 2.4-2.4v-6.4c0-0.442-0.358-0.8-0.8-0.8s-0.8 0.358-0.8 0.8v0 6.4c0 0.442-0.358 0.8-0.8 0.8h-4v-15.2c0-1.194-0.859-2.496-1.955-2.965l-6.147-2.635h12.102c0.442 0 0.8 0.358 0.8 0.8v0 6.4c0 0.442 0.358 0.8 0.8 0.8v0zM10.214 8.906c0.515 0.221 0.986 0.934 0.986 1.494v19.2c0 0.166-0.045 0.259-0.072 0.277s-0.13 0.022-0.283-0.043l-8.259-3.539c-0.515-0.221-0.986-0.933-0.986-1.494v-19.2c0-0.001 0-0.001 0-0.002 0-0.127 0.030-0.248 0.084-0.354l-0.002 0.005 8.533 3.658z"></path>
      <path d="M29.366 14.634l-4.8-4.8c-0.144-0.139-0.34-0.225-0.556-0.225-0.442 0-0.8 0.358-0.8 0.8 0 0.216 0.086 0.413 0.225 0.557l3.433 3.433h-10.069c-0.442 0-0.8 0.358-0.8 0.8s0.358 0.8 0.8 0.8h10.069l-3.434 3.434c-0.145 0.145-0.234 0.345-0.234 0.566 0 0.442 0.358 0.8 0.8 0.8 0.221 0 0.421-0.090 0.566-0.235v0l4.8-4.8c0.145-0.145 0.234-0.345 0.234-0.566s-0.090-0.421-0.234-0.566v0z"></path>
    </symbol>
  </defs>
</svg>
